<?xml version="1.0" encoding="utf-8"?>
<!-- Generator: Adobe Illustrator 22.1.0, SVG Export Plug-In . SVG Version: 6.00 Build 0)  -->
<svg version="1.1" id="Layer_1" xmlns="http://www.w3.org/2000/svg" xmlns:xlink="http://www.w3.org/1999/xlink" x="0px" y="0px"
	 viewBox="0 0 512 512" style="enable-background:new 0 0 512 512;" xml:space="preserve">
<style type="text/css">
	.st0{fill:#3A3A3A;}
</style>
<g>
	<g>
		<path class="st0" d="M480,42.7H32c-17.6,0-32,14.4-32,32v298.7c0,17.6,14.4,32,32,32h181.3v23L94.3,448.2c-5.8,1-9.7,6.5-8.8,12.3
			c0.9,5.2,5.4,8.9,10.5,8.9c0.6,0,1.2,0,1.8-0.1L224.9,448h62.3l127.1,21.2c0.6,0.1,1.2,0.1,1.8,0.1c5.1,0,9.6-3.7,10.5-8.9
			c1-5.8-3-11.3-8.8-12.3l-119.1-19.8v-23H480c17.6,0,32-14.4,32-32V74.7C512,57.1,497.6,42.7,480,42.7z M469.3,362.7H42.7V85.4
			h426.7L469.3,362.7L469.3,362.7z"/>
	</g>
</g>
</svg>
