<?xml version="1.0" encoding="utf-8"?>
<!-- Generator: Adobe Illustrator 22.1.0, SVG Export Plug-In . SVG Version: 6.00 Build 0)  -->
<svg version="1.1" id="Layer_1" xmlns="http://www.w3.org/2000/svg" xmlns:xlink="http://www.w3.org/1999/xlink" x="0px" y="0px"
	 viewBox="0 0 512 512" style="enable-background:new 0 0 512 512;" xml:space="preserve">
<style type="text/css">
	.st0{fill:#3A3A3A;}
</style>
<g>
	<g>
		<path class="st0" d="M117.2,198.9v248.3h277.6V198.9H117.2z M195.2,304.2c0,5.2-4.2,9.5-9.5,9.5c-5.2,0-9.5-4.2-9.5-9.5v-30.1
			c0-5.2,4.2-9.5,9.5-9.5c5.2,0,9.5,4.2,9.5,9.5V304.2z"/>
	</g>
</g>
<g>
	<g>
		<path class="st0" d="M356.4,0H155.6c-21.2,0-38.4,17.2-38.4,38.4V180h277.6V38.4C394.8,17.2,377.6,0,356.4,0z M195.2,141.5
			c0,5.2-4.2,9.5-9.5,9.5c-5.2,0-9.5-4.2-9.5-9.5v-30.1c0-5.2,4.2-9.5,9.5-9.5c5.2,0,9.5,4.2,9.5,9.5V141.5z"/>
	</g>
</g>
<g>
	<g>
		<path class="st0" d="M117.2,466.2v7.4c0,21.2,17.2,38.4,38.4,38.4h200.8c21.2,0,38.4-17.2,38.4-38.4v-7.4H117.2z"/>
	</g>
</g>
</svg>
