<?xml version="1.0" encoding="utf-8"?>
<!-- Generator: Adobe Illustrator 22.1.0, SVG Export Plug-In . SVG Version: 6.00 Build 0)  -->
<svg version="1.1" id="Layer_1" xmlns="http://www.w3.org/2000/svg" xmlns:xlink="http://www.w3.org/1999/xlink" x="0px" y="0px"
	 viewBox="0 0 512 512" style="enable-background:new 0 0 512 512;" xml:space="preserve">
<style type="text/css">
	.st0{fill:#3A3A3A;}
</style>
<g>
	<g>
		<path class="st0" d="M468,190v-54.9c0-26-17.1-41.1-43.1-41.1H95.2c-26,0-51.2,15.1-51.2,41.1V190h7.2c22.6,0,36.8,12.4,36.8,35
			v57h336v-57c0-22.6,22.4-35,45-35H468z"/>
	</g>
</g>
<g>
	<g>
		<path class="st0" d="M88,298v5v11c0,7.7,10.5,20,18.2,20h307.7c7.7,0,10.1-12.3,10.1-20v-11v-5H88z"/>
	</g>
</g>
<g>
	<g>
		<path class="st0" d="M491,206h-22c-13.8,0-29,5.2-29,19V303v11c0,16.6-9.5,36-26.1,36H106.2C89.7,350,72,330.5,72,314v-11V225
			c0-13.8-7-19-20.8-19h-22C15.3,206,0,211.2,0,225v99.9c0,26,25.2,53.1,51.2,53.1H48v30c0,2.2,5.9,10,8.1,10H84c2.2,0,0-7.8,0-10
			v-30h344v30c0,2.2,5.6,10,7.8,10h27.9c2.2,0,0.3-7.8,0.3-10v-30h5c26,0,43-27.1,43-53.1V225C512,211.2,504.8,206,491,206z"/>
	</g>
</g>
</svg>
